<svg xmlns="http://www.w3.org/2000/svg" xmlns:xlink="http://www.w3.org/1999/xlink" width="235" height="202" version="1.1" viewBox="0 0 235 202"><title>挂机</title><desc>Created with Sketch.</desc><defs><linearGradient id="linearGradient-1" x1="-53.673%" x2="129.848%" y1="-.194%" y2="90.164%"><stop offset="0%" stop-color="#494BF9"/><stop offset="100%" stop-color="#A87BE9"/></linearGradient></defs><g id="页面-1" fill="none" fill-rule="evenodd" stroke="none" stroke-width="1"><g id="挂机" transform="translate(0.000000, -3.000000)"><g id="img_24hourillustration"><g id="编组-30"><rect id="矩形" width="145" height="145" x="63.03" y="30.03" fill="#E2ECF4" fill-rule="nonzero" opacity=".4" rx="9" transform="translate(135.530483, 102.530483) rotate(-45.000000) translate(-135.530483, -102.530483)"/><rect id="矩形" width="105" height="174" x="62" y="20" fill="#CED7E2" fill-rule="nonzero" rx="14"/><rect id="矩形备份-25" width="96" height="160" x="66.5" y="41" fill="#CED7E2" fill-rule="nonzero" opacity=".3" rx="14"/><rect id="矩形" width="96" height="162" x="67" y="26" fill="#FFF" fill-rule="nonzero" rx="10"/><path id="矩形" fill="url(#linearGradient-1)" fill-rule="nonzero" d="M77,26 L153,26 C158.522847,26 163,30.4771525 163,36 L163,93 L163,93 L67,93 L67,36 C67,30.4771525 71.4771525,26 77,26 Z"/><path id="Fill-19" fill="#E6EDF5" fill-rule="nonzero" d="M141,122 L77,122 C75.896,122 75,121.104 75,120 L75,113 C75,111.896 75.896,111 77,111 L141,111 C142.105,111 143,111.896 143,113 L143,120 C143,121.104 142.105,122 141,122"/><path id="Fill-21" fill="#E6EDF5" fill-rule="nonzero" d="M119,140 L77,140 C75.896,140 75,139.104 75,138 L75,131 C75,129.896 75.896,129 77,129 L119,129 C120.105,129 121,129.896 121,131 L121,138 C121,139.104 120.105,140 119,140"/><rect id="矩形备份-34" width="101" height="48.6" x="32" y="60.7" fill="#E4E4E4" fill-rule="nonzero" rx="7"/><rect id="矩形" width="120" height="54" x="26" y="46" fill="#FFF" fill-rule="nonzero" rx="7"/><path id="Fill-23" fill="#E6EDF5" fill-rule="nonzero" d="M156,158 L114,158 C112.896,158 112,157.104 112,156 L112,149 C112,147.896 112.896,147 114,147 L156,147 C157.104,147 158,147.896 158,149 L158,156 C158,157.104 157.104,158 156,158"/><path id="Fill-41" fill="#BBD9FA" fill-rule="nonzero" d="M9.70641237,121.707814 L5.70781399,125.706412 C5.31636382,126.097863 4.68263503,126.097863 4.29218601,125.706412 L0.293587626,121.707814 C-0.097862542,121.317365 -0.097862542,120.683636 0.293587626,120.292186 L4.29218601,116.293588 C4.68263503,115.902137 5.31636382,115.902137 5.70781399,116.293588 L9.70641237,120.292186 C10.0978625,120.683636 10.0978625,121.317365 9.70641237,121.707814"/><path id="Fill-43" fill="#FFBBD8" fill-rule="nonzero" d="M50.7147782,141.188171 L43.1876448,148.714762 C42.8083217,149.095079 42.1916783,149.095079 41.8123552,148.714762 L34.2852218,141.188171 C33.9049261,140.807853 33.9049261,140.192147 34.2852218,139.811829 L41.8123552,132.285238 C42.1916783,131.904921 42.8083217,131.904921 43.1876448,132.285238 L50.7147782,139.811829 C51.0950739,140.192147 51.0950739,140.807853 50.7147782,141.188171"/><path id="Fill-45" fill="#266EFD" fill-opacity=".3" fill-rule="nonzero" d="M146.306937,185 L84.693063,185 C82.6530774,185 81,183.32357 81,181.254766 L81,174.745234 C81,172.67643 82.6530774,171 84.693063,171 L146.306937,171 C148.346923,171 150,172.67643 150,174.745234 L150,181.254766 C150,183.32357 148.346923,185 146.306937,185"/><rect id="矩形" width="83" height="17" x="75" y="164" fill="#266EFD" fill-rule="nonzero" rx="4"/><path id="形状结合" fill="#FFF" fill-rule="nonzero" d="M104.49093,30 C105.314918,30 105.98186,30.672 105.98186,31.5 C105.98186,32.2802353 105.391074,32.9205121 104.634606,32.993139 L104.49093,33 C103.667937,33 103,32.329 103,31.5 C103,30.672 103.667937,30 104.49093,30 Z M125.50907,30 C126.332063,30 127,30.672 127,31.5 C127,32.329 126.332063,33 125.50907,33 L109.605815,33 C108.781827,33 108.114885,32.329 108.114885,31.5 C108.114885,30.672 108.781827,30 109.605815,30 L125.50907,30 Z"/><rect id="矩形" width="73" height="43" x="141" y="109" fill="#266EFD" fill-rule="nonzero" rx="7"/><rect id="矩形" width="65" height="38.288" x="145" y="116.356" fill="#266EFD" fill-rule="nonzero" opacity=".3" rx="7"/><rect id="矩形" width="14" height="14" x="193.899" y="188.899" fill="#C4D8FC" fill-rule="nonzero" rx="2" transform="translate(200.899495, 195.899495) rotate(-45.000000) translate(-200.899495, -195.899495)"/><rect id="矩形" width="28" height="28" x="186.799" y="46.799" fill="#33C8CD" fill-rule="nonzero" opacity=".252" rx="2" transform="translate(200.798990, 60.798990) rotate(-45.000000) translate(-200.798990, -60.798990)"/><rect id="矩形" width="65" height="3" x="74" y="60" fill="#E4EBF3" fill-rule="nonzero" rx="1.5"/><rect id="矩形备份-32" width="65" height="3" x="74" y="71" fill="#E4EBF3" fill-rule="nonzero" rx="1.5"/><rect id="矩形备份-33" width="41" height="3" x="74" y="82" fill="#E4EBF3" fill-rule="nonzero" rx="1.5"/><rect id="矩形" width="47" height="3" x="154" y="118" fill="#FFF" fill-rule="nonzero" rx="1.5"/><rect id="矩形备份-32" width="47" height="3" x="154" y="129" fill="#FFF" fill-rule="nonzero" rx="1.5"/><rect id="矩形备份-33" width="30" height="3" x="171" y="140" fill="#FFF" fill-rule="nonzero" rx="1.5"/><circle id="椭圆形" cx="50" cy="72" r="15" fill="#266EFD" fill-rule="nonzero"/><g id="play" fill="#FFF" fill-rule="nonzero" transform="translate(46.000000, 66.000000)"><path id="路径" d="M10.0745805,4.38112682 L2.75012375,0.24390128 C1.52540425,-0.45245581 0,0.426072708 0,1.81878689 L0,10.0966594 C0,11.4927716 1.52537918,12.3661797 2.75012375,11.6749431 L10.0745805,7.53774081 C11.3084732,6.83970794 11.3084732,5.07750718 10.0745805,4.37947431 L10.0745805,4.38112682 Z"/></g><rect id="矩形" width="22" height="22" x="152" y="22" fill="#33C7CD" fill-rule="nonzero" opacity=".3" rx="7"/><rect id="矩形" width="30" height="30" x="148" y="9" fill="#E50916" fill-rule="nonzero" rx="7"/><g id="提示" fill-rule="nonzero" transform="translate(52.000000, 47.000000)"><polygon id="路径" fill="#FFF" fill-opacity="0" points="3 3 16 3 16 16 3 16"/><circle id="椭圆形" cx="9.5" cy="9.5" r="9.5" fill="#FFF"/><path id="形状" fill="#F7A200" d="M9.50014656,3 C5.91017747,3 3,5.91024309 3,9.50029312 C3,13.09005 5.91017747,16 9.50014656,16 C13.0898225,16 16,13.0897569 16,9.5 C16,5.91024309 13.0901156,3 9.50014656,3 Z M9.50014656,13.1060699 C9.10185413,13.1060699 8.77897432,12.7831828 8.77897432,12.3848814 C8.77897432,11.98658 9.10185413,11.6636929 9.50014656,11.6636929 C9.89843899,11.6636929 10.2213188,11.98658 10.2213188,12.3848814 C10.2213188,12.7831828 9.89843899,13.1060699 9.50014656,13.1060699 L9.50014656,13.1060699 Z M9.86050328,10.1824706 C9.86050328,10.5819994 9.69500631,10.9035061 9.50014656,10.9035061 C9.30528681,10.9035061 9.13948398,10.5819994 9.13948398,10.1824706 L8.77882139,6.97622259 C8.77882139,6.57792119 9.1017012,6.2550341 9.49999363,6.2550341 C9.89828606,6.2550341 10.2211659,6.57792119 10.2211659,6.97622259 L9.86050328,10.1824706 Z"/></g></g><g id="电影之夜-影人榜点击态" fill="#FFF" fill-rule="nonzero" transform="translate(156.000000, 15.000000)"><path id="形状" d="M6.4357177,8.56370255 C9.77633289,9.26677067 12.8252385,8.33697348 13.2422752,6.48777951 C13.4886077,5.40405616 12.5011167,5.60374415 10.9431713,5.81591264 L11.4444797,3.60686427 C11.762119,2.2048882 10.8351307,0.813312533 9.3787435,0.507540302 L7.24818297,0.0603224129 C7.05803153,0.020800832 6.86571927,0 6.67340701,0 C5.40933206,0 4.29867475,0.861154446 4.02857326,2.04888196 L3.52510409,4.26417057 C2.22861696,3.45917837 1.38590032,2.87883515 1.1460502,3.94591784 C0.726852694,5.79303172 3.09510252,7.86063443 6.4357177,8.56370255 Z M13.9380566,14.5897036 C13.1947373,12.5886635 11.5719676,11.0327613 9.52135708,10.3172127 C9.85628292,10.0405616 10.1393493,9.70774831 10.3575913,9.33957358 C9.82387075,9.43941758 9.24693397,9.49557982 8.63110258,9.49557982 C7.86185355,9.49557982 7.0709964,9.4123765 6.28013925,9.24596984 C5.11978326,9.0026001 4.07611112,8.6073843 3.19882149,8.11440458 C3.34791752,8.97139886 3.7995272,9.75351014 4.48234376,10.3192928 C2.42525084,11.0348414 0.800320298,12.5969839 0.061322632,14.6084243 C-0.05536121,14.9266771 -0.00350172469,15.2823713 0.199614593,15.5590224 C0.40273091,15.8356734 0.735495941,16 1.08554747,16 L1.08770828,16 L12.9159926,15.9833593 C13.2682049,15.9833593 13.6009699,15.8169527 13.8019254,15.5382215 C14.0050418,15.2615705 14.0547404,14.9079563 13.9380566,14.5897036 L13.9380566,14.5897036 Z M6.99968961,15.6547062 L6.15265135,14.7311492 L6.64747727,11.3198128 C6.53295424,11.224129 6.45732582,11.0847634 6.45732582,10.9266771 C6.45732582,10.6375455 6.69933676,10.4045762 6.99968961,10.4045762 C7.30004246,10.4045762 7.54205339,10.6375455 7.54205339,10.9266771 C7.54205339,11.0847634 7.46642498,11.224129 7.35190195,11.3198128 L7.84672787,14.7311492 L6.99968961,15.6547062 L6.99968961,15.6547062 Z"/></g></g></g></g></svg>